<svg xmlns="http://www.w3.org/2000/svg" xmlns:xlink="http://www.w3.org/1999/xlink" width="109" zoomAndPan="magnify" viewBox="0 0 81.75 42.75" height="57" preserveAspectRatio="xMidYMid meet" version="1.0"><defs><g/><clipPath id="3de611e8c1"><path d="M 0.113281 16.789062 L 81.386719 16.789062 L 81.386719 42 L 0.113281 42 Z M 0.113281 16.789062 " clip-rule="nonzero"/></clipPath><clipPath id="b14dd81a7d"><path d="M 0.234375 38.316406 C 0.234375 36.226562 2.078125 34.597656 4.1875 34.832031 L 67 41.808594 C 75.054688 42.699219 81.875 36.007812 81.007812 28.0625 C 80.109375 19.78125 71.40625 14.671875 63.601562 17.839844 L 5.140625 41.558594 C 2.800781 42.507812 0.234375 40.8125 0.234375 38.316406 Z M 0.234375 38.316406 " clip-rule="nonzero"/></clipPath><linearGradient x1="805.973836" gradientTransform="matrix(0.356962, 0, 0, 0.352108, 0.235541, 16.789092)" y1="187.492357" x2="763.259164" gradientUnits="userSpaceOnUse" y2="319.316706" id="7e09cc2079"><stop stop-opacity="1" stop-color="rgb(79.396057%, 31.881714%, 49.562073%)" offset="0"/><stop stop-opacity="1" stop-color="rgb(79.36554%, 31.800842%, 49.732971%)" offset="0.0078125"/><stop stop-opacity="1" stop-color="rgb(79.30603%, 31.640625%, 50.074768%)" offset="0.015625"/><stop stop-opacity="1" stop-color="rgb(79.246521%, 31.480408%, 50.416565%)" offset="0.0234375"/><stop stop-opacity="1" stop-color="rgb(79.187012%, 31.32019%, 50.758362%)" offset="0.03125"/><stop stop-opacity="1" stop-color="rgb(79.127502%, 31.159973%, 51.100159%)" offset="0.0390625"/><stop stop-opacity="1" stop-color="rgb(79.066467%, 30.99823%, 51.441956%)" offset="0.046875"/><stop stop-opacity="1" stop-color="rgb(79.006958%, 30.838013%, 51.785278%)" offset="0.0546875"/><stop stop-opacity="1" stop-color="rgb(78.947449%, 30.677795%, 52.127075%)" offset="0.0625"/><stop stop-opacity="1" stop-color="rgb(78.887939%, 30.517578%, 52.468872%)" offset="0.0703125"/><stop stop-opacity="1" stop-color="rgb(78.82843%, 30.355835%, 52.810669%)" offset="0.078125"/><stop stop-opacity="1" stop-color="rgb(78.768921%, 30.195618%, 53.152466%)" offset="0.0859375"/><stop stop-opacity="1" stop-color="rgb(78.709412%, 30.0354%, 53.494263%)" offset="0.09375"/><stop stop-opacity="1" stop-color="rgb(78.649902%, 29.875183%, 53.83606%)" offset="0.101563"/><stop stop-opacity="1" stop-color="rgb(78.590393%, 29.71344%, 54.177856%)" offset="0.109375"/><stop stop-opacity="1" stop-color="rgb(78.530884%, 29.553223%, 54.519653%)" offset="0.117187"/><stop stop-opacity="1" stop-color="rgb(78.471375%, 29.393005%, 54.86145%)" offset="0.125"/><stop stop-opacity="1" stop-color="rgb(78.411865%, 29.232788%, 55.203247%)" offset="0.132812"/><stop stop-opacity="1" stop-color="rgb(78.35083%, 29.072571%, 55.54657%)" offset="0.140625"/><stop stop-opacity="1" stop-color="rgb(78.291321%, 28.910828%, 55.888367%)" offset="0.148437"/><stop stop-opacity="1" stop-color="rgb(78.231812%, 28.75061%, 56.230164%)" offset="0.15625"/><stop stop-opacity="1" stop-color="rgb(78.172302%, 28.590393%, 56.57196%)" offset="0.164062"/><stop stop-opacity="1" stop-color="rgb(78.112793%, 28.430176%, 56.913757%)" offset="0.171875"/><stop stop-opacity="1" stop-color="rgb(78.053284%, 28.268433%, 57.255554%)" offset="0.179687"/><stop stop-opacity="1" stop-color="rgb(77.993774%, 28.108215%, 57.597351%)" offset="0.1875"/><stop stop-opacity="1" stop-color="rgb(77.934265%, 27.947998%, 57.939148%)" offset="0.195312"/><stop stop-opacity="1" stop-color="rgb(77.874756%, 27.787781%, 58.280945%)" offset="0.203125"/><stop stop-opacity="1" stop-color="rgb(77.815247%, 27.627563%, 58.622742%)" offset="0.210938"/><stop stop-opacity="1" stop-color="rgb(77.755737%, 27.46582%, 58.966064%)" offset="0.21875"/><stop stop-opacity="1" stop-color="rgb(77.696228%, 27.305603%, 59.307861%)" offset="0.226563"/><stop stop-opacity="1" stop-color="rgb(77.635193%, 27.145386%, 59.649658%)" offset="0.234375"/><stop stop-opacity="1" stop-color="rgb(77.575684%, 26.985168%, 59.991455%)" offset="0.242187"/><stop stop-opacity="1" stop-color="rgb(77.516174%, 26.823425%, 60.333252%)" offset="0.25"/><stop stop-opacity="1" stop-color="rgb(77.456665%, 26.663208%, 60.675049%)" offset="0.257812"/><stop stop-opacity="1" stop-color="rgb(77.397156%, 26.502991%, 61.016846%)" offset="0.265625"/><stop stop-opacity="1" stop-color="rgb(77.337646%, 26.342773%, 61.358643%)" offset="0.273437"/><stop stop-opacity="1" stop-color="rgb(77.278137%, 26.182556%, 61.700439%)" offset="0.28125"/><stop stop-opacity="1" stop-color="rgb(77.218628%, 26.020813%, 62.042236%)" offset="0.289062"/><stop stop-opacity="1" stop-color="rgb(77.159119%, 25.860596%, 62.384033%)" offset="0.296875"/><stop stop-opacity="1" stop-color="rgb(77.099609%, 25.700378%, 62.727356%)" offset="0.304687"/><stop stop-opacity="1" stop-color="rgb(77.0401%, 25.540161%, 63.069153%)" offset="0.3125"/><stop stop-opacity="1" stop-color="rgb(76.980591%, 25.378418%, 63.41095%)" offset="0.320312"/><stop stop-opacity="1" stop-color="rgb(76.919556%, 25.218201%, 63.752747%)" offset="0.328125"/><stop stop-opacity="1" stop-color="rgb(76.860046%, 25.057983%, 64.094543%)" offset="0.335938"/><stop stop-opacity="1" stop-color="rgb(76.800537%, 24.897766%, 64.43634%)" offset="0.34375"/><stop stop-opacity="1" stop-color="rgb(76.741028%, 24.737549%, 64.778137%)" offset="0.351563"/><stop stop-opacity="1" stop-color="rgb(76.681519%, 24.575806%, 65.119934%)" offset="0.359375"/><stop stop-opacity="1" stop-color="rgb(76.622009%, 24.415588%, 65.461731%)" offset="0.367187"/><stop stop-opacity="1" stop-color="rgb(76.5625%, 24.255371%, 65.803528%)" offset="0.375"/><stop stop-opacity="1" stop-color="rgb(76.502991%, 24.095154%, 66.146851%)" offset="0.382812"/><stop stop-opacity="1" stop-color="rgb(76.443481%, 23.933411%, 66.488647%)" offset="0.390625"/><stop stop-opacity="1" stop-color="rgb(76.383972%, 23.773193%, 66.830444%)" offset="0.398437"/><stop stop-opacity="1" stop-color="rgb(76.324463%, 23.612976%, 67.172241%)" offset="0.40625"/><stop stop-opacity="1" stop-color="rgb(76.263428%, 23.452759%, 67.514038%)" offset="0.414062"/><stop stop-opacity="1" stop-color="rgb(76.203918%, 23.291016%, 67.855835%)" offset="0.421875"/><stop stop-opacity="1" stop-color="rgb(76.144409%, 23.130798%, 68.197632%)" offset="0.429687"/><stop stop-opacity="1" stop-color="rgb(76.0849%, 22.970581%, 68.539429%)" offset="0.4375"/><stop stop-opacity="1" stop-color="rgb(76.025391%, 22.810364%, 68.881226%)" offset="0.445312"/><stop stop-opacity="1" stop-color="rgb(75.965881%, 22.650146%, 69.223022%)" offset="0.453125"/><stop stop-opacity="1" stop-color="rgb(75.906372%, 22.488403%, 69.564819%)" offset="0.460938"/><stop stop-opacity="1" stop-color="rgb(75.846863%, 22.328186%, 69.908142%)" offset="0.46875"/><stop stop-opacity="1" stop-color="rgb(75.787354%, 22.167969%, 70.249939%)" offset="0.476563"/><stop stop-opacity="1" stop-color="rgb(75.727844%, 22.007751%, 70.591736%)" offset="0.484375"/><stop stop-opacity="1" stop-color="rgb(75.668335%, 21.846008%, 70.933533%)" offset="0.492187"/><stop stop-opacity="1" stop-color="rgb(75.608826%, 21.685791%, 71.27533%)" offset="0.494285"/><stop stop-opacity="1" stop-color="rgb(75.578308%, 21.606445%, 71.446228%)" offset="0.5"/><stop stop-opacity="1" stop-color="rgb(75.547791%, 21.525574%, 71.617126%)" offset="0.505715"/><stop stop-opacity="1" stop-color="rgb(75.518799%, 21.446228%, 71.788025%)" offset="0.507812"/><stop stop-opacity="1" stop-color="rgb(75.488281%, 21.365356%, 71.958923%)" offset="0.515625"/><stop stop-opacity="1" stop-color="rgb(75.428772%, 21.205139%, 72.30072%)" offset="0.523437"/><stop stop-opacity="1" stop-color="rgb(75.369263%, 21.043396%, 72.642517%)" offset="0.53125"/><stop stop-opacity="1" stop-color="rgb(75.309753%, 20.883179%, 72.984314%)" offset="0.539062"/><stop stop-opacity="1" stop-color="rgb(75.250244%, 20.722961%, 73.326111%)" offset="0.546875"/><stop stop-opacity="1" stop-color="rgb(75.190735%, 20.562744%, 73.669434%)" offset="0.554687"/><stop stop-opacity="1" stop-color="rgb(75.131226%, 20.401001%, 74.01123%)" offset="0.5625"/><stop stop-opacity="1" stop-color="rgb(75.071716%, 20.240784%, 74.353027%)" offset="0.570312"/><stop stop-opacity="1" stop-color="rgb(75.012207%, 20.080566%, 74.694824%)" offset="0.578125"/><stop stop-opacity="1" stop-color="rgb(74.952698%, 19.920349%, 75.036621%)" offset="0.585938"/><stop stop-opacity="1" stop-color="rgb(74.893188%, 19.760132%, 75.378418%)" offset="0.59375"/><stop stop-opacity="1" stop-color="rgb(74.832153%, 19.598389%, 75.720215%)" offset="0.601563"/><stop stop-opacity="1" stop-color="rgb(74.772644%, 19.438171%, 76.062012%)" offset="0.609375"/><stop stop-opacity="1" stop-color="rgb(74.713135%, 19.277954%, 76.403809%)" offset="0.617187"/><stop stop-opacity="1" stop-color="rgb(74.653625%, 19.117737%, 76.745605%)" offset="0.625"/><stop stop-opacity="1" stop-color="rgb(74.594116%, 18.955994%, 77.088928%)" offset="0.632812"/><stop stop-opacity="1" stop-color="rgb(74.534607%, 18.795776%, 77.430725%)" offset="0.640625"/><stop stop-opacity="1" stop-color="rgb(74.475098%, 18.635559%, 77.772522%)" offset="0.648437"/><stop stop-opacity="1" stop-color="rgb(74.415588%, 18.475342%, 78.114319%)" offset="0.65625"/><stop stop-opacity="1" stop-color="rgb(74.356079%, 18.315125%, 78.456116%)" offset="0.664062"/><stop stop-opacity="1" stop-color="rgb(74.29657%, 18.153381%, 78.797913%)" offset="0.671875"/><stop stop-opacity="1" stop-color="rgb(74.237061%, 17.993164%, 79.139709%)" offset="0.679687"/><stop stop-opacity="1" stop-color="rgb(74.177551%, 17.832947%, 79.481506%)" offset="0.6875"/><stop stop-opacity="1" stop-color="rgb(74.116516%, 17.672729%, 79.823303%)" offset="0.695312"/><stop stop-opacity="1" stop-color="rgb(74.057007%, 17.510986%, 80.1651%)" offset="0.703125"/><stop stop-opacity="1" stop-color="rgb(73.997498%, 17.350769%, 80.506897%)" offset="0.710938"/><stop stop-opacity="1" stop-color="rgb(73.937988%, 17.190552%, 80.85022%)" offset="0.71875"/><stop stop-opacity="1" stop-color="rgb(73.878479%, 17.030334%, 81.192017%)" offset="0.726563"/><stop stop-opacity="1" stop-color="rgb(73.81897%, 16.868591%, 81.533813%)" offset="0.734375"/><stop stop-opacity="1" stop-color="rgb(73.75946%, 16.708374%, 81.87561%)" offset="0.742187"/><stop stop-opacity="1" stop-color="rgb(73.699951%, 16.548157%, 82.217407%)" offset="0.75"/><stop stop-opacity="1" stop-color="rgb(73.640442%, 16.387939%, 82.559204%)" offset="0.757812"/><stop stop-opacity="1" stop-color="rgb(73.580933%, 16.227722%, 82.901001%)" offset="0.765625"/><stop stop-opacity="1" stop-color="rgb(73.521423%, 16.065979%, 83.242798%)" offset="0.773437"/><stop stop-opacity="1" stop-color="rgb(73.461914%, 15.905762%, 83.584595%)" offset="0.78125"/><stop stop-opacity="1" stop-color="rgb(73.400879%, 15.745544%, 83.926392%)" offset="0.789062"/><stop stop-opacity="1" stop-color="rgb(73.34137%, 15.585327%, 84.269714%)" offset="0.796875"/><stop stop-opacity="1" stop-color="rgb(73.28186%, 15.423584%, 84.611511%)" offset="0.804688"/><stop stop-opacity="1" stop-color="rgb(73.222351%, 15.263367%, 84.953308%)" offset="0.8125"/><stop stop-opacity="1" stop-color="rgb(73.162842%, 15.103149%, 85.295105%)" offset="0.820312"/><stop stop-opacity="1" stop-color="rgb(73.103333%, 14.942932%, 85.636902%)" offset="0.828125"/><stop stop-opacity="1" stop-color="rgb(73.043823%, 14.782715%, 85.978699%)" offset="0.835938"/><stop stop-opacity="1" stop-color="rgb(72.984314%, 14.620972%, 86.320496%)" offset="0.84375"/><stop stop-opacity="1" stop-color="rgb(72.924805%, 14.460754%, 86.662292%)" offset="0.851563"/><stop stop-opacity="1" stop-color="rgb(72.865295%, 14.300537%, 87.004089%)" offset="0.859375"/><stop stop-opacity="1" stop-color="rgb(72.805786%, 14.14032%, 87.345886%)" offset="0.867188"/><stop stop-opacity="1" stop-color="rgb(72.746277%, 13.978577%, 87.687683%)" offset="0.875"/><stop stop-opacity="1" stop-color="rgb(72.685242%, 13.818359%, 88.031006%)" offset="0.882812"/><stop stop-opacity="1" stop-color="rgb(72.625732%, 13.658142%, 88.372803%)" offset="0.890625"/><stop stop-opacity="1" stop-color="rgb(72.566223%, 13.497925%, 88.7146%)" offset="0.898437"/><stop stop-opacity="1" stop-color="rgb(72.506714%, 13.337708%, 89.056396%)" offset="0.90625"/><stop stop-opacity="1" stop-color="rgb(72.447205%, 13.175964%, 89.398193%)" offset="0.914062"/><stop stop-opacity="1" stop-color="rgb(72.387695%, 13.015747%, 89.73999%)" offset="0.921875"/><stop stop-opacity="1" stop-color="rgb(72.328186%, 12.85553%, 90.081787%)" offset="0.929688"/><stop stop-opacity="1" stop-color="rgb(72.268677%, 12.695312%, 90.423584%)" offset="0.9375"/><stop stop-opacity="1" stop-color="rgb(72.209167%, 12.533569%, 90.765381%)" offset="0.945312"/><stop stop-opacity="1" stop-color="rgb(72.149658%, 12.373352%, 91.107178%)" offset="0.953125"/><stop stop-opacity="1" stop-color="rgb(72.090149%, 12.213135%, 91.4505%)" offset="0.960938"/><stop stop-opacity="1" stop-color="rgb(72.03064%, 12.052917%, 91.792297%)" offset="0.96875"/><stop stop-opacity="1" stop-color="rgb(71.969604%, 11.8927%, 92.134094%)" offset="0.976563"/><stop stop-opacity="1" stop-color="rgb(71.910095%, 11.730957%, 92.475891%)" offset="0.984375"/><stop stop-opacity="1" stop-color="rgb(71.850586%, 11.57074%, 92.817688%)" offset="0.992188"/><stop stop-opacity="1" stop-color="rgb(71.791077%, 11.410522%, 93.159485%)" offset="1"/></linearGradient></defs><g clip-path="url(#3de611e8c1)"><g clip-path="url(#b14dd81a7d)"><path fill="url(#7e09cc2079)" d="M 0.234375 16.789062 L 0.234375 42.140625 L 81.386719 42.140625 L 81.386719 16.789062 Z M 0.234375 16.789062 " fill-rule="nonzero"/></g></g><g fill="#ffffff" fill-opacity="1"><g transform="translate(5.86165, 33.939707)"><g><path d="M 5.421875 0.125 C 4.546875 0.125 3.757812 -0.015625 3.0625 -0.296875 C 2.363281 -0.585938 1.800781 -1.015625 1.375 -1.578125 C 0.957031 -2.140625 0.738281 -2.816406 0.71875 -3.609375 L 3.84375 -3.609375 C 3.894531 -3.160156 4.050781 -2.816406 4.3125 -2.578125 C 4.570312 -2.347656 4.914062 -2.234375 5.34375 -2.234375 C 5.78125 -2.234375 6.125 -2.332031 6.375 -2.53125 C 6.625 -2.726562 6.75 -3.003906 6.75 -3.359375 C 6.75 -3.660156 6.644531 -3.90625 6.4375 -4.09375 C 6.238281 -4.289062 5.992188 -4.453125 5.703125 -4.578125 C 5.410156 -4.710938 5 -4.859375 4.46875 -5.015625 C 3.6875 -5.253906 3.046875 -5.492188 2.546875 -5.734375 C 2.054688 -5.972656 1.632812 -6.328125 1.28125 -6.796875 C 0.925781 -7.265625 0.75 -7.878906 0.75 -8.640625 C 0.75 -9.753906 1.15625 -10.628906 1.96875 -11.265625 C 2.78125 -11.898438 3.84375 -12.21875 5.15625 -12.21875 C 6.476562 -12.21875 7.546875 -11.898438 8.359375 -11.265625 C 9.171875 -10.628906 9.609375 -9.75 9.671875 -8.625 L 6.484375 -8.625 C 6.460938 -9.007812 6.320312 -9.3125 6.0625 -9.53125 C 5.800781 -9.757812 5.460938 -9.875 5.046875 -9.875 C 4.691406 -9.875 4.40625 -9.78125 4.1875 -9.59375 C 3.96875 -9.40625 3.859375 -9.132812 3.859375 -8.78125 C 3.859375 -8.382812 4.039062 -8.078125 4.40625 -7.859375 C 4.78125 -7.640625 5.351562 -7.40625 6.125 -7.15625 C 6.90625 -6.894531 7.535156 -6.644531 8.015625 -6.40625 C 8.503906 -6.164062 8.925781 -5.816406 9.28125 -5.359375 C 9.644531 -4.898438 9.828125 -4.3125 9.828125 -3.59375 C 9.828125 -2.90625 9.648438 -2.28125 9.296875 -1.71875 C 8.953125 -1.15625 8.445312 -0.707031 7.78125 -0.375 C 7.113281 -0.0390625 6.328125 0.125 5.421875 0.125 Z M 5.421875 0.125 "/></g></g></g><g fill="#ffffff" fill-opacity="1"><g transform="translate(16.426029, 33.939707)"><g><path d="M 0.484375 -4.8125 C 0.484375 -5.789062 0.664062 -6.648438 1.03125 -7.390625 C 1.40625 -8.140625 1.910156 -8.710938 2.546875 -9.109375 C 3.191406 -9.515625 3.910156 -9.71875 4.703125 -9.71875 C 5.378906 -9.71875 5.972656 -9.578125 6.484375 -9.296875 C 6.992188 -9.023438 7.382812 -8.664062 7.65625 -8.21875 L 7.65625 -9.578125 L 10.59375 -9.578125 L 10.59375 0 L 7.65625 0 L 7.65625 -1.359375 C 7.375 -0.910156 6.976562 -0.546875 6.46875 -0.265625 C 5.957031 0.00390625 5.363281 0.140625 4.6875 0.140625 C 3.90625 0.140625 3.191406 -0.0625 2.546875 -0.46875 C 1.910156 -0.875 1.40625 -1.453125 1.03125 -2.203125 C 0.664062 -2.953125 0.484375 -3.820312 0.484375 -4.8125 Z M 7.65625 -4.796875 C 7.65625 -5.523438 7.453125 -6.097656 7.046875 -6.515625 C 6.640625 -6.941406 6.144531 -7.15625 5.5625 -7.15625 C 4.976562 -7.15625 4.484375 -6.945312 4.078125 -6.53125 C 3.671875 -6.113281 3.46875 -5.539062 3.46875 -4.8125 C 3.46875 -4.070312 3.671875 -3.488281 4.078125 -3.0625 C 4.484375 -2.632812 4.976562 -2.421875 5.5625 -2.421875 C 6.144531 -2.421875 6.640625 -2.628906 7.046875 -3.046875 C 7.453125 -3.472656 7.65625 -4.054688 7.65625 -4.796875 Z M 7.65625 -4.796875 "/></g></g></g><g fill="#ffffff" fill-opacity="1"><g transform="translate(28.08979, 33.939707)"><g><path d="M 13.296875 -9.6875 C 14.484375 -9.6875 15.425781 -9.320312 16.125 -8.59375 C 16.832031 -7.875 17.1875 -6.875 17.1875 -5.59375 L 17.1875 0 L 14.265625 0 L 14.265625 -5.203125 C 14.265625 -5.816406 14.101562 -6.289062 13.78125 -6.625 C 13.457031 -6.96875 13.007812 -7.140625 12.4375 -7.140625 C 11.863281 -7.140625 11.410156 -6.96875 11.078125 -6.625 C 10.753906 -6.289062 10.59375 -5.816406 10.59375 -5.203125 L 10.59375 0 L 7.671875 0 L 7.671875 -5.203125 C 7.671875 -5.816406 7.507812 -6.289062 7.1875 -6.625 C 6.863281 -6.96875 6.414062 -7.140625 5.84375 -7.140625 C 5.269531 -7.140625 4.816406 -6.96875 4.484375 -6.625 C 4.160156 -6.289062 4 -5.816406 4 -5.203125 L 4 0 L 1.0625 0 L 1.0625 -9.578125 L 4 -9.578125 L 4 -8.375 C 4.300781 -8.78125 4.691406 -9.097656 5.171875 -9.328125 C 5.648438 -9.566406 6.191406 -9.6875 6.796875 -9.6875 C 7.515625 -9.6875 8.15625 -9.53125 8.71875 -9.21875 C 9.289062 -8.90625 9.738281 -8.46875 10.0625 -7.90625 C 10.394531 -8.425781 10.847656 -8.851562 11.421875 -9.1875 C 11.992188 -9.519531 12.617188 -9.6875 13.296875 -9.6875 Z M 13.296875 -9.6875 "/></g></g></g><g fill="#ffffff" fill-opacity="1"><g transform="translate(46.28113, 33.939707)"><g><path d="M 2.546875 -10.578125 C 2.023438 -10.578125 1.601562 -10.726562 1.28125 -11.03125 C 0.957031 -11.332031 0.796875 -11.707031 0.796875 -12.15625 C 0.796875 -12.613281 0.957031 -12.992188 1.28125 -13.296875 C 1.601562 -13.597656 2.023438 -13.75 2.546875 -13.75 C 3.046875 -13.75 3.457031 -13.597656 3.78125 -13.296875 C 4.113281 -12.992188 4.28125 -12.613281 4.28125 -12.15625 C 4.28125 -11.707031 4.113281 -11.332031 3.78125 -11.03125 C 3.457031 -10.726562 3.046875 -10.578125 2.546875 -10.578125 Z M 4 -9.578125 L 4 0 L 1.0625 0 L 1.0625 -9.578125 Z M 4 -9.578125 "/></g></g></g><g fill="#ffffff" fill-opacity="1"><g transform="translate(51.348596, 33.939707)"><g><path d="M 6.953125 -9.6875 C 8.054688 -9.6875 8.9375 -9.320312 9.59375 -8.59375 C 10.257812 -7.863281 10.59375 -6.863281 10.59375 -5.59375 L 10.59375 0 L 7.671875 0 L 7.671875 -5.203125 C 7.671875 -5.847656 7.503906 -6.347656 7.171875 -6.703125 C 6.847656 -7.054688 6.40625 -7.234375 5.84375 -7.234375 C 5.28125 -7.234375 4.832031 -7.054688 4.5 -6.703125 C 4.164062 -6.347656 4 -5.847656 4 -5.203125 L 4 0 L 1.0625 0 L 1.0625 -12.703125 L 4 -12.703125 L 4 -8.296875 C 4.300781 -8.710938 4.707031 -9.046875 5.21875 -9.296875 C 5.738281 -9.554688 6.316406 -9.6875 6.953125 -9.6875 Z M 6.953125 -9.6875 "/></g></g></g><g fill="#ffffff" fill-opacity="1"><g transform="translate(62.926472, 33.939707)"><g><path d="M 8.5625 -2.125 L 4.0625 -2.125 L 3.34375 0 L 0.28125 0 L 4.640625 -12.046875 L 8.03125 -12.046875 L 12.390625 0 L 9.296875 0 Z M 7.8125 -4.390625 L 6.3125 -8.8125 L 4.84375 -4.390625 Z M 7.8125 -4.390625 "/></g></g></g></svg>